#Comment line ignore any data following # character 
#Hierarchical Translation and Rotation (.htr) file 
[Header]	
#Header keywords are followed by a single value 
FileType HTR		#Single word string
DataType HTRS		#Translation followed by rotation and scale data
FileVersion 1		#integer
NumSegments 84		#integer
NumFrames 2		#integer
DataFrameRate 30		#integer, data frame rate in this file
EulerRotationOrder ZYX
CalibrationUnits mm
RotationUnits Degrees
GlobalAxisofGravity Y
BoneLengthAxis Y
ScaleFactor 1.00
[SegmentNames&Hierarchy]
#CHILD	PARENT
MASTER GLOBAL
root MASTER
chest root
L_mid_tent01 root
R_mid_tent01 root
spine01 root
Bip01_Neck chest
L_humerus chest
R_humerus chest
weapon_bone chest
Bip01_Head Bip01_Neck
eye_left_bone Bip01_Head
eye_right_bone Bip01_Head
L_forearm L_humerus
L_front_hand L_forearm
L_weapon_bone L_forearm
L_front_hand01_01 L_front_hand
L_front_hand02_01 L_front_hand
L_front_hand03_01 L_front_hand
L_front_hand01_02 L_front_hand01_01
L_front_hand02_02 L_front_hand02_01
L_front_hand03_02 L_front_hand03_01
R_forearm R_humerus
R_front_hand R_forearm
R_weapon_bone R_forearm
R_front_hand01_01 R_front_hand
R_front_hand02_01 R_front_hand
R_front_hand03_01 R_front_hand
R_front_hand01_02 R_front_hand01_01
R_front_hand02_02 R_front_hand02_01
R_front_hand03_02 R_front_hand03_01
null_rope01_connect L_mid_tent01
Rope1_Seg01 null_rope01_connect
Rope1_Seg02 Rope1_Seg01
Rope1_Seg03 Rope1_Seg02
Rope1_Seg04 Rope1_Seg03
Rope1_Seg05 Rope1_Seg04
Rope1_Seg06 Rope1_Seg05
Rope1_Seg07 Rope1_Seg06
Rope1_Seg09 Rope1_Seg07
L_mid_hand01 Rope1_Seg09
L_mid_hand02 Rope1_Seg09
L_mid_hand03 Rope1_Seg09
null_rope02_connect R_mid_tent01
Rope2_Seg01 null_rope02_connect
Rope2_Seg02 Rope2_Seg01
Rope2_Seg03 Rope2_Seg02
Rope2_Seg04 Rope2_Seg03
Rope2_Seg05 Rope2_Seg04
Rope2_Seg06 Rope2_Seg05
Rope2_Seg07 Rope2_Seg06
Rope2_Seg09 Rope2_Seg07
R_mid_hand01 Rope2_Seg09
R_mid_hand02 Rope2_Seg09
R_mid_hand03 Rope2_Seg09
spine02 spine01
spine03 spine02
pelvis spine03
null_rope03_connect pelvis
null_rope04_connect pelvis
Rope3_Seg01 null_rope03_connect
Rope3_Seg02 Rope3_Seg01
Rope3_Seg03 Rope3_Seg02
Rope3_Seg04 Rope3_Seg03
Rope3_Seg05 Rope3_Seg04
Rope3_Seg06 Rope3_Seg05
Rope3_Seg07 Rope3_Seg06
Rope3_Seg08 Rope3_Seg07
Rope3_Seg09 Rope3_Seg08
R_rear_hand01 Rope3_Seg09
R_rear_hand02 Rope3_Seg09
R_rear_hand03 Rope3_Seg09
Rope4_Seg01 null_rope04_connect
Rope4_Seg02 Rope4_Seg01
Rope4_Seg03 Rope4_Seg02
Rope4_Seg04 Rope4_Seg03
Rope4_Seg05 Rope4_Seg04
Rope4_Seg06 Rope4_Seg05
Rope4_Seg07 Rope4_Seg06
Rope4_Seg08 Rope4_Seg07
Rope4_Seg09 Rope4_Seg08
L_rear_hand01 Rope4_Seg09
L_rear_hand02 Rope4_Seg09
L_rear_hand03 Rope4_Seg09
[BasePosition]
#SegmentName Tx, Ty, Tz, Rx, Ry, Rz, BoneLength
MASTER 0.000000 0.000000 0.000000 -90.000000 0.000000 0.000000 10.000000 
root 0.000000 0.000000 0.000000 0.000000 0.000000 0.000000 10.000000 
chest 0.000000 0.000000 0.000000 0.000000 0.000000 0.000000 10.000000 
L_mid_tent01 0.000000 0.000000 0.000000 0.000000 0.000000 0.000000 10.000000 
R_mid_tent01 0.000000 0.000000 0.000000 0.000000 0.000000 0.000000 10.000000 
spine01 0.000000 0.000000 0.000000 0.000000 0.000000 0.000000 10.000000 
Bip01_Neck 0.000000 0.000000 0.000000 0.000000 0.000000 0.000000 10.000000 
L_humerus 0.000000 0.000000 0.000000 0.000000 0.000000 0.000000 10.000000 
R_humerus 0.000000 0.000000 0.000000 0.000000 0.000000 0.000000 10.000000 
weapon_bone 0.000000 0.000000 0.000000 0.000000 0.000000 0.000000 10.000000 
Bip01_Head 0.000000 0.000000 0.000000 0.000000 0.000000 0.000000 10.000000 
eye_left_bone 0.000000 0.000000 0.000000 0.000000 0.000000 0.000000 10.000000 
eye_right_bone 0.000000 0.000000 0.000000 0.000000 0.000000 0.000000 10.000000 
L_forearm 0.000000 0.000000 0.000000 0.000000 0.000000 0.000000 10.000000 
L_front_hand 0.000000 0.000000 0.000000 0.000000 0.000000 0.000000 10.000000 
L_weapon_bone 0.000000 0.000000 0.000000 0.000000 0.000000 0.000000 10.000000 
L_front_hand01_01 0.000000 0.000000 0.000000 0.000000 0.000000 0.000000 10.000000 
L_front_hand02_01 0.000000 0.000000 0.000000 0.000000 0.000000 0.000000 10.000000 
L_front_hand03_01 0.000000 0.000000 0.000000 0.000000 0.000000 0.000000 10.000000 
L_front_hand01_02 0.000000 0.000000 0.000000 0.000000 0.000000 0.000000 10.000000 
L_front_hand02_02 0.000000 0.000000 0.000000 0.000000 0.000000 0.000000 10.000000 
L_front_hand03_02 0.000000 0.000000 0.000000 0.000000 0.000000 0.000000 10.000000 
R_forearm 0.000000 0.000000 0.000000 0.000000 0.000000 0.000000 10.000000 
R_front_hand 0.000000 0.000000 0.000000 0.000000 0.000000 0.000000 10.000000 
R_weapon_bone 0.000000 0.000000 0.000000 0.000000 0.000000 0.000000 10.000000 
R_front_hand01_01 0.000000 0.000000 0.000000 0.000000 0.000000 0.000000 10.000000 
R_front_hand02_01 0.000000 0.000000 0.000000 0.000000 0.000000 0.000000 10.000000 
R_front_hand03_01 0.000000 0.000000 0.000000 0.000000 0.000000 0.000000 10.000000 
R_front_hand01_02 0.000000 0.000000 0.000000 0.000000 0.000000 0.000000 10.000000 
R_front_hand02_02 0.000000 0.000000 0.000000 0.000000 0.000000 0.000000 10.000000 
R_front_hand03_02 0.000000 0.000000 0.000000 0.000000 0.000000 0.000000 10.000000 
null_rope01_connect 0.000000 0.000000 0.000000 0.000000 0.000000 0.000000 10.000000 
Rope1_Seg01 0.000000 0.000000 0.000000 0.000000 0.000000 0.000000 10.000000 
Rope1_Seg02 0.000000 0.000000 0.000000 0.000000 0.000000 0.000000 10.000000 
Rope1_Seg03 0.000000 0.000000 0.000000 0.000000 0.000000 0.000000 10.000000 
Rope1_Seg04 0.000000 0.000000 0.000000 0.000000 0.000000 0.000000 10.000000 
Rope1_Seg05 0.000000 0.000000 0.000000 0.000000 0.000000 0.000000 10.000000 
Rope1_Seg06 0.000000 0.000000 0.000000 0.000000 0.000000 0.000000 10.000000 
Rope1_Seg07 0.000000 0.000000 0.000000 0.000000 0.000000 0.000000 10.000000 
Rope1_Seg09 0.000000 0.000000 0.000000 0.000000 0.000000 0.000000 10.000000 
L_mid_hand01 0.000000 0.000000 0.000000 0.000000 0.000000 0.000000 10.000000 
L_mid_hand02 0.000000 0.000000 0.000000 0.000000 0.000000 0.000000 10.000000 
L_mid_hand03 0.000000 0.000000 0.000000 0.000000 0.000000 0.000000 10.000000 
null_rope02_connect 0.000000 0.000000 0.000000 0.000000 0.000000 0.000000 10.000000 
Rope2_Seg01 0.000000 0.000000 0.000000 0.000000 0.000000 0.000000 10.000000 
Rope2_Seg02 0.000000 0.000000 0.000000 0.000000 0.000000 0.000000 10.000000 
Rope2_Seg03 0.000000 0.000000 0.000000 0.000000 0.000000 0.000000 10.000000 
Rope2_Seg04 0.000000 0.000000 0.000000 0.000000 0.000000 0.000000 10.000000 
Rope2_Seg05 0.000000 0.000000 0.000000 0.000000 0.000000 0.000000 10.000000 
Rope2_Seg06 0.000000 0.000000 0.000000 0.000000 0.000000 0.000000 10.000000 
Rope2_Seg07 0.000000 0.000000 0.000000 0.000000 0.000000 0.000000 10.000000 
Rope2_Seg09 0.000000 0.000000 0.000000 0.000000 0.000000 0.000000 10.000000 
R_mid_hand01 0.000000 0.000000 0.000000 0.000000 0.000000 0.000000 10.000000 
R_mid_hand02 0.000000 0.000000 0.000000 0.000000 0.000000 0.000000 10.000000 
R_mid_hand03 0.000000 0.000000 0.000000 0.000000 0.000000 0.000000 10.000000 
spine02 0.000000 0.000000 0.000000 0.000000 0.000000 0.000000 10.000000 
spine03 0.000000 0.000000 0.000000 0.000000 0.000000 0.000000 10.000000 
pelvis 0.000000 0.000000 0.000000 0.000000 0.000000 0.000000 10.000000 
null_rope03_connect 0.000000 0.000000 0.000000 0.000000 0.000000 0.000000 10.000000 
null_rope04_connect 0.000000 0.000000 0.000000 0.000000 0.000000 0.000000 10.000000 
Rope3_Seg01 0.000000 0.000000 0.000000 0.000000 0.000000 0.000000 10.000000 
Rope3_Seg02 0.000000 0.000000 0.000000 0.000000 0.000000 0.000000 10.000000 
Rope3_Seg03 0.000000 0.000000 0.000000 0.000000 0.000000 0.000000 10.000000 
Rope3_Seg04 0.000000 0.000000 0.000000 0.000000 0.000000 0.000000 10.000000 
Rope3_Seg05 0.000000 0.000000 0.000000 0.000000 0.000000 0.000000 10.000000 
Rope3_Seg06 0.000000 0.000000 0.000000 0.000000 0.000000 0.000000 10.000000 
Rope3_Seg07 0.000000 0.000000 0.000000 0.000000 0.000000 0.000000 10.000000 
Rope3_Seg08 0.000000 0.000000 0.000000 0.000000 0.000000 0.000000 10.000000 
Rope3_Seg09 0.000000 0.000000 0.000000 0.000000 0.000000 0.000000 10.000000 
R_rear_hand01 0.000000 0.000000 0.000000 0.000000 0.000000 0.000000 10.000000 
R_rear_hand02 0.000000 0.000000 0.000000 0.000000 0.000000 0.000000 10.000000 
R_rear_hand03 0.000000 0.000000 0.000000 0.000000 0.000000 0.000000 10.000000 
Rope4_Seg01 0.000000 0.000000 0.000000 0.000000 0.000000 0.000000 10.000000 
Rope4_Seg02 0.000000 0.000000 0.000000 0.000000 0.000000 0.000000 10.000000 
Rope4_Seg03 0.000000 0.000000 0.000000 0.000000 0.000000 0.000000 10.000000 
Rope4_Seg04 0.000000 0.000000 0.000000 0.000000 0.000000 0.000000 10.000000 
Rope4_Seg05 0.000000 0.000000 0.000000 0.000000 0.000000 0.000000 10.000000 
Rope4_Seg06 0.000000 0.000000 0.000000 0.000000 0.000000 0.000000 10.000000 
Rope4_Seg07 0.000000 0.000000 0.000000 0.000000 0.000000 0.000000 10.000000 
Rope4_Seg08 0.000000 0.000000 0.000000 0.000000 0.000000 0.000000 10.000000 
Rope4_Seg09 0.000000 0.000000 0.000000 0.000000 0.000000 0.000000 10.000000 
L_rear_hand01 0.000000 0.000000 0.000000 0.000000 0.000000 0.000000 10.000000 
L_rear_hand02 0.000000 0.000000 0.000000 0.000000 0.000000 0.000000 10.000000 
L_rear_hand03 0.000000 0.000000 0.000000 0.000000 0.000000 0.000000 10.000000 
#Beginning of Data. Separated by tabs
#Fr	Tx	Ty	Tz	Rx	Ry	Rz	SF
[MASTER]
7 0.000000 0.000000 0.000000 0.001660 0.001660 0.001660 0.000000
8 0.000000 0.000000 0.000000 0.001660 0.001660 0.001660 0.000000
[root]
7 6.207911 -114.011597 1833.401611 -104.377632 -23.396656 -58.372746 1836.953613
8 11.670869 -138.079987 1918.087646 -107.103981 -25.766005 -57.193832 1923.086670
[chest]
7 -84.512650 -34.090519 0.000000 -2.632898 3.556945 172.616257 91.129311
8 -84.512650 -34.090519 0.000000 -2.692059 3.788479 173.639771 91.129311
[L_mid_tent01]
7 27.299091 22.179384 -249.918655 -56.536144 27.826738 -10.538433 252.381668
8 27.299089 22.179379 -249.918655 -63.806793 31.045177 -14.587588 252.381668
[R_mid_tent01]
7 23.228794 24.509907 226.238495 125.670509 -50.336273 126.072586 228.744751
8 23.228794 24.509907 226.238495 112.117027 -45.073986 146.495544 228.744751
[spine01]
7 -0.361383 -0.195265 0.000000 0.001941 0.001320 21.568336 0.410763
8 -0.361383 -0.195265 0.000000 0.001940 0.001321 21.505419 0.410763
[Bip01_Neck]
7 165.484543 71.581718 0.000119 175.896118 1.177290 24.871183 180.302734
8 165.484543 71.581718 0.000119 175.896118 1.177290 24.871183 180.302734
[L_humerus]
7 -13.983130 -135.272980 -120.471481 80.789307 81.314270 174.647476 181.680161
8 -13.983130 -135.272980 -120.471481 116.690926 80.316330 -148.963623 181.680161
[R_humerus]
7 -13.983309 -135.273102 125.287651 112.438667 -52.410381 7.493331 184.909012
8 -13.983309 -135.273102 125.287651 122.399055 -48.032841 1.181235 184.909012
[weapon_bone]
7 235.964890 -300.705902 0.000000 0.000000 -89.951546 -128.212341 382.234833
8 235.964890 -300.705902 0.000000 0.000000 -89.951546 -128.212341 382.234833
[Bip01_Head]
7 222.059021 126.690659 6.219634 -25.448750 0.766478 -56.646645 255.733093
8 226.179077 121.282631 5.590436 -30.481813 0.643194 -55.507107 256.705505
[eye_left_bone]
7 30.442505 157.989334 -75.387093 -104.218590 -85.597984 4.718000 177.681152
8 30.885925 158.251343 -75.472534 -104.218590 -85.597984 4.718000 178.026779
[eye_right_bone]
7 41.236572 158.915176 53.285103 75.788536 -85.594551 4.713911 172.608780
8 41.680656 159.140823 53.210670 75.788536 -85.594551 4.713911 172.900131
[L_forearm]
7 322.776093 0.000000 -0.000119 0.000345 -0.002322 -106.922325 322.776093
8 322.776093 0.000000 -0.000119 0.000294 -0.002329 -104.414948 322.776093
[L_front_hand]
7 241.149185 -0.042021 -3.300071 -178.791061 -1.921704 -23.632504 241.171753
8 241.149185 -0.042021 -3.300071 -178.814362 -1.936647 -22.908020 241.171753
[L_weapon_bone]
7 156.183838 0.000000 0.000000 0.001168 0.002036 -30.316696 156.183838
8 156.183838 0.000000 0.000000 0.001022 0.002120 -38.511894 156.183838
[L_front_hand01_01]
7 86.095154 20.947098 -0.655860 -0.351943 -0.488194 73.775459 88.609184
8 86.095154 20.947098 -0.655860 -0.349809 -0.489725 73.275398 88.609184
[L_front_hand02_01]
7 86.935165 -11.437475 24.513514 151.964508 -59.158276 -58.542583 91.046425
8 86.935165 -11.437475 24.513514 151.228317 -58.922241 -57.683537 91.046425
[L_front_hand03_01]
7 86.637497 -14.123976 -20.424902 -151.649841 57.384983 -60.025185 90.126129
8 86.637497 -14.123976 -20.424902 -150.974457 57.140579 -59.221375 90.126129
[L_front_hand01_02]
7 71.020905 -0.000179 0.000030 0.000334 -0.002323 -106.379532 71.020905
8 71.020905 -0.000179 0.000030 0.001534 0.001777 -8.378850 71.020905
[L_front_hand02_02]
7 71.020927 -0.000119 0.000060 0.000334 -0.002323 -106.379532 71.020927
8 71.020927 -0.000119 0.000060 0.001534 0.001777 -8.378850 71.020927
[L_front_hand03_02]
7 71.020905 -0.000060 0.000060 0.000334 -0.002323 -106.379532 71.020905
8 71.020905 -0.000060 0.000060 0.001534 0.001777 -8.378850 71.020905
[R_forearm]
7 322.776428 -0.000060 0.000030 0.195935 -0.088366 -66.498543 322.776428
8 322.776428 -0.000060 0.000030 0.184413 -0.108750 -59.884163 322.776428
[R_front_hand]
7 238.847015 -0.006795 2.210259 -2.635298 -10.645461 -26.312506 238.857239
8 238.847015 -0.006795 2.210259 -2.635298 -10.645461 -26.312506 238.857239
[R_weapon_bone]
7 155.664093 0.002503 -0.000030 0.003487 0.001180 -90.988930 155.664078
8 155.664093 0.002503 -0.000030 0.003487 0.001180 -90.988930 155.664078
[R_front_hand01_01]
7 87.624611 14.231146 22.918642 -132.881287 -48.317307 35.200413 91.683487
8 87.624611 14.231146 22.918642 -141.814407 -54.852409 46.569672 91.683487
[R_front_hand02_01]
7 89.356956 14.367283 -19.491137 133.931915 46.837090 38.008522 92.579636
8 89.356956 14.367283 -19.491137 142.507828 53.258823 49.159962 92.579636
[R_front_hand03_01]
7 87.286232 -22.307278 -0.143439 0.014273 -0.450967 -56.567078 90.091743
8 87.286232 -22.307278 -0.143439 0.089382 -0.443277 -66.167549 90.091743
[R_front_hand01_02]
7 71.020905 0.000060 0.000119 0.002342 -0.000155 97.557175 71.020905
8 71.020905 0.000060 0.000119 0.002225 0.000748 52.855816 71.020905
[R_front_hand02_02]
7 71.020844 -0.000030 -0.000119 0.002342 -0.000155 97.557175 71.020836
8 71.020844 -0.000030 -0.000119 0.002225 0.000748 52.855816 71.020836
[R_front_hand03_02]
7 71.020905 0.000000 0.000030 0.002342 -0.000155 97.557175 71.020905
8 71.020905 0.000000 0.000030 0.002225 0.000748 52.855816 71.020905
[null_rope01_connect]
7 328.732483 0.000000 -0.000238 -143.935898 -37.960182 -89.212921 328.732483
8 328.732483 0.000000 -0.000238 -135.440140 -31.995399 -92.750786 328.732483
[Rope1_Seg01]
7 -0.000035 0.000031 0.000124 58.369076 -30.225712 -129.206802 0.000132
8 -0.000034 0.000030 0.000119 61.839359 -33.485363 -132.876099 0.000127
[Rope1_Seg02]
7 139.999863 -0.000179 0.000000 -0.486620 -0.289113 1.412458 139.999863
8 139.999863 -0.000179 0.000000 0.134173 -1.240965 1.009199 139.999863
[Rope1_Seg03]
7 139.999924 0.000060 -0.000060 -0.806662 -0.539624 2.518159 139.999924
8 139.999924 0.000060 -0.000060 0.202821 -2.257282 1.842840 139.999924
[Rope1_Seg04]
7 139.999924 -0.000060 -0.000119 -2.452955 -6.463367 13.378841 139.999924
8 139.999924 -0.000060 -0.000119 -0.731366 -11.280406 11.129066 139.999924
[Rope1_Seg05]
7 139.999832 0.000119 -0.000060 -98.568138 64.758484 -48.862293 139.999832
8 139.999832 0.000119 -0.000060 91.871178 6.944341 -123.805946 139.999832
[Rope1_Seg06]
7 139.999954 0.000119 -0.000060 -50.295593 31.970346 23.050123 139.999954
8 139.999954 0.000119 -0.000060 12.094624 -14.536115 -9.142169 139.999954
[Rope1_Seg07]
7 139.999985 0.000060 0.000000 -1.054174 -0.156099 1.669920 139.999985
8 139.999985 0.000060 0.000000 0.006608 0.001655 0.001649 139.999985
[Rope1_Seg09]
7 121.602913 0.000119 -0.000089 -87.563904 -1.358899 0.845655 121.602913
8 121.602913 0.000119 -0.000089 -84.995079 -1.361419 0.847188 121.602913
[L_mid_hand01]
7 103.859421 1.038730 8.195221 104.404274 -4.587231 -1.706503 104.187431
8 103.859421 1.038730 8.195221 104.355827 -1.017639 -0.792002 104.187431
[L_mid_hand02]
7 105.572853 -4.139662 -10.864139 -135.973434 7.451859 -7.046957 106.211075
8 105.572853 -4.139662 -10.864139 -135.688309 4.878247 -4.384164 106.211075
[L_mid_hand03]
7 104.641464 17.579376 -3.913581 -18.722961 1.307641 7.757794 106.179977
8 104.641464 17.579376 -3.913581 -18.765369 0.125340 4.267871 106.179977
[null_rope02_connect]
7 328.732849 0.000179 -0.000119 -120.839027 8.373876 60.388584 328.732849
8 328.732849 0.000179 -0.000119 -126.816437 6.391664 71.101234 328.732849
[Rope2_Seg01]
7 0.000095 0.000153 0.000014 -14.852660 -29.225744 -7.948786 0.000181
8 0.000095 0.000153 0.000017 -23.620659 -14.480766 -6.532873 0.000181
[Rope2_Seg02]
7 139.999741 -0.000060 -0.000119 -9.653223 17.643461 5.550769 139.999756
8 139.999741 -0.000060 -0.000119 -8.963150 7.578928 7.432631 139.999756
[Rope2_Seg03]
7 140.000107 0.000030 0.000000 -24.218651 21.870829 10.623963 140.000107
8 140.000107 0.000030 0.000000 -17.166630 11.504899 14.234911 140.000107
[Rope2_Seg04]
7 139.999802 0.000000 -0.000060 -26.069239 11.628312 13.572674 139.999802
8 139.999802 0.000000 -0.000060 -21.492283 10.422634 21.512398 139.999802
[Rope2_Seg05]
7 139.999985 -0.000060 0.000119 -16.495392 -3.004909 16.961470 139.999985
8 139.999985 -0.000060 0.000119 -12.163246 -18.791828 27.303062 139.999985
[Rope2_Seg06]
7 139.999893 -0.000030 -0.000119 -14.026829 -17.515362 28.795843 139.999893
8 139.999893 -0.000030 -0.000119 -6.227813 -29.238756 28.429768 139.999893
[Rope2_Seg07]
7 139.999893 0.000060 -0.000060 -3.380401 -14.448316 18.590508 139.999893
8 139.999893 0.000060 -0.000060 3.086287 -11.098333 11.713185 139.999893
[Rope2_Seg09]
7 121.338966 0.000089 -0.000060 33.793236 -1.359788 -0.847141 121.338966
8 121.338966 0.000089 -0.000060 33.793236 -1.359788 -0.847141 121.338966
[R_mid_hand01]
7 104.680779 11.144459 -10.335981 -47.306622 4.274036 6.661830 105.778534
8 104.680779 11.144459 -10.335981 -47.384247 2.963542 5.452623 105.778534
[R_mid_hand02]
7 104.070427 2.443552 8.231699 75.603210 -3.978246 1.556080 104.424065
8 104.070427 2.443552 8.231699 75.626305 -2.250029 1.111100 104.424065
[R_mid_hand03]
7 106.028137 -11.221827 -5.996406 -164.461227 2.973406 -7.858383 106.788818
8 106.028137 -11.221827 -5.996406 -164.381927 2.495991 -6.140547 106.788818
[spine02]
7 129.756927 0.001550 0.000119 0.452563 -4.034682 -14.283841 129.756927
8 129.756927 0.001550 0.000119 0.458885 -4.033906 -14.323960 129.756927
[spine03]
7 78.614044 0.081606 -4.899017 2.101687 3.725563 19.599701 78.766579
8 78.614044 0.081601 -4.899017 2.121193 3.712976 19.926594 78.766579
[pelvis]
7 169.435242 0.051022 0.000000 -0.061828 -0.179762 14.955442 169.435257
8 169.435242 0.051022 0.000000 -0.061953 -0.179719 15.035252 169.435257
[null_rope03_connect]
7 -1.257226 -2.466202 137.391083 115.705032 -61.378361 -40.762028 137.418976
8 -1.257226 -2.466202 137.391083 120.315460 -60.949604 -42.516182 137.418976
[null_rope04_connect]
7 -1.259640 -2.480268 -137.844437 115.705032 -61.378361 -40.762028 137.872513
8 -1.259640 -2.480268 -137.844437 120.315460 -60.949604 -42.516182 137.872513
[Rope3_Seg01]
7 0.000000 0.000000 0.000000 -124.323730 41.176685 -61.864738 0.000000
8 0.000000 0.000000 0.000000 -124.338982 40.844532 -61.877567 0.000000
[Rope3_Seg02]
7 139.999924 -0.000119 0.000060 0.349790 -6.002187 -1.066623 139.999924
8 139.999924 -0.000119 0.000060 0.387859 -7.093991 -0.314732 139.999924
[Rope3_Seg03]
7 139.999924 -0.000119 0.000119 1.189811 -9.291130 -1.613510 139.999924
8 139.999924 -0.000119 0.000119 1.382708 -10.846371 -0.417763 139.999924
[Rope3_Seg04]
7 139.999924 0.000119 0.000000 5.174947 -19.125759 -2.351761 139.999924
8 139.999924 0.000119 0.000000 4.813187 -18.945080 -0.460606 139.999924
[Rope3_Seg05]
7 139.999924 -0.000238 0.000060 9.275480 -19.267054 -1.379800 139.999924
8 139.999924 -0.000238 0.000060 8.185899 -18.885197 1.241746 139.999924
[Rope3_Seg06]
7 139.999893 -0.000119 -0.000060 55.643112 -38.662445 -26.775200 139.999893
8 139.999893 -0.000119 -0.000060 13.638295 -22.552084 6.913482 139.999893
[Rope3_Seg07]
7 139.999771 0.000060 -0.000119 21.303553 -69.989235 79.491875 139.999771
8 139.999771 0.000060 -0.000119 5.780088 -53.224892 54.349602 139.999771
[Rope3_Seg08]
7 139.999985 -0.000060 0.000000 0.535801 0.001636 0.001704 139.999985
8 139.999985 -0.000060 0.000000 1.482143 -8.524087 19.237005 139.999985
[Rope3_Seg09]
7 90.185997 -0.000179 -0.000060 78.165504 -1.360714 -0.848158 90.185997
8 90.185997 -0.000179 -0.000060 75.958855 -1.358529 -0.845193 90.185997
[R_rear_hand01]
7 103.366196 -6.073594 -10.757982 -156.209549 6.713651 -4.254880 104.101845
8 103.366196 -6.073594 -10.757982 -156.049316 6.070421 -2.795877 104.101845
[R_rear_hand02]
7 100.509819 12.039542 -7.992327 -38.654713 2.945909 6.696510 101.543350
8 100.509819 12.039542 -7.992327 -38.708427 1.958057 5.461192 101.543350
[R_rear_hand03]
7 101.539970 5.215704 5.435467 84.296906 -3.937378 4.256484 101.819031
8 101.539970 5.215704 5.435467 84.307625 -2.361042 4.099039 101.819031
[Rope4_Seg01]
7 -0.000017 -0.000062 -0.000153 45.503952 -25.809580 -95.880951 0.000166
8 -0.000017 -0.000060 -0.000153 45.421776 -33.047874 -95.161369 0.000165
[Rope4_Seg02]
7 139.999985 0.000060 0.000119 -0.050175 2.305960 -2.329397 139.999985
8 139.999985 0.000060 0.000119 -0.115318 1.379488 -2.319581 139.999985
[Rope4_Seg03]
7 139.999924 0.000000 -0.000238 -0.047511 4.158010 -4.217518 139.999924
8 139.999924 0.000000 -0.000238 -0.251779 2.477075 -4.165003 139.999924
[Rope4_Seg04]
7 139.999985 0.000000 0.000119 -0.052277 13.122684 -12.349473 139.999985
8 139.999985 0.000000 0.000119 -1.096783 7.083845 -11.512342 139.999985
[Rope4_Seg05]
7 139.999802 -0.000060 -0.000119 -4.395839 44.709538 -57.545979 139.999802
8 139.999802 -0.000060 -0.000119 -19.698120 36.571484 -71.323761 139.999802
[Rope4_Seg06]
7 139.999924 0.000000 0.000060 5.429283 -38.348232 -16.106953 139.999924
8 139.999924 0.000000 0.000060 3.657652 -19.240566 -37.999851 139.999924
[Rope4_Seg07]
7 139.999802 0.000000 0.000000 19.730839 -44.392048 -10.895600 139.999802
8 139.999802 0.000000 0.000000 -13.976476 -31.794964 -36.145294 139.999802
[Rope4_Seg08]
7 139.999924 0.000000 0.000119 7.886101 -10.196688 -0.981753 139.999924
8 139.999924 0.000000 0.000119 -28.258362 -1.998294 -11.006433 139.999924
[Rope4_Seg09]
7 90.185791 0.000060 0.000060 -145.046631 2.230311 0.849245 90.185791
8 90.185791 0.000060 0.000060 -147.110092 2.227895 0.850237 90.185791
[L_rear_hand01]
7 101.696655 -8.392275 -7.654577 -38.741360 -0.846532 175.927750 102.329041
8 101.696655 -8.392275 -7.654577 -38.746338 0.246078 177.290192 102.329041
[L_rear_hand02]
7 102.726799 -1.568258 5.773216 84.312180 0.593346 176.077271 102.900848
8 102.726799 -1.568258 5.773216 84.315163 -1.142767 176.247437 102.900848
[L_rear_hand03]
7 104.552910 9.721220 -10.420293 -155.883026 -5.346637 -178.835999 105.519653
8 104.552910 9.721220 -10.420293 -155.747955 -4.630857 179.564789 105.519653
